<mxfile host="app.diagrams.net" modified="2021-05-14T05:51:53.513Z" agent="5.0 (Windows NT 10.0; Win64; x64) AppleWebKit/537.36 (KHTML, like Gecko) Chrome/85.0.4183.121 Safari/537.36" etag="uqRpH3KMZDiV5Yb7POMf" version="14.6.13" type="github">
  <diagram id="7JtARlBv7itgWGIjmpzo" name="Page-1">
    <mxGraphModel dx="658" dy="787" grid="1" gridSize="10" guides="1" tooltips="1" connect="1" arrows="1" fold="1" page="1" pageScale="1" pageWidth="850" pageHeight="1100" math="0" shadow="0">
      <root>
        <mxCell id="0" />
        <mxCell id="1" parent="0" />
        <mxCell id="CUUQq9G3v90n7fBV2zaQ-1" value="User" style="swimlane;fontStyle=3;align=center;verticalAlign=top;childLayout=stackLayout;horizontal=1;startSize=26;horizontalStack=0;resizeParent=1;resizeParentMax=0;resizeLast=0;collapsible=1;marginBottom=0;" vertex="1" parent="1">
          <mxGeometry x="90" y="240" width="160" height="52" as="geometry" />
        </mxCell>
        <mxCell id="CUUQq9G3v90n7fBV2zaQ-12" value="UserFactory" style="swimlane;fontStyle=1;align=center;verticalAlign=top;childLayout=stackLayout;horizontal=1;startSize=26;horizontalStack=0;resizeParent=1;resizeParentMax=0;resizeLast=0;collapsible=1;marginBottom=0;" vertex="1" parent="1">
          <mxGeometry x="610" y="266" width="180" height="34" as="geometry" />
        </mxCell>
        <mxCell id="CUUQq9G3v90n7fBV2zaQ-13" value="" style="line;strokeWidth=1;fillColor=none;align=left;verticalAlign=middle;spacingTop=-1;spacingLeft=3;spacingRight=3;rotatable=0;labelPosition=right;points=[];portConstraint=eastwest;" vertex="1" parent="CUUQq9G3v90n7fBV2zaQ-12">
          <mxGeometry y="26" width="180" height="8" as="geometry" />
        </mxCell>
        <mxCell id="CUUQq9G3v90n7fBV2zaQ-15" style="edgeStyle=orthogonalEdgeStyle;rounded=0;orthogonalLoop=1;jettySize=auto;html=1;exitX=0.5;exitY=0;exitDx=0;exitDy=0;endArrow=none;endFill=0;" edge="1" parent="1" source="CUUQq9G3v90n7fBV2zaQ-16">
          <mxGeometry relative="1" as="geometry">
            <mxPoint x="170" y="550" as="targetPoint" />
            <Array as="points">
              <mxPoint x="400" y="550" />
            </Array>
          </mxGeometry>
        </mxCell>
        <mxCell id="CUUQq9G3v90n7fBV2zaQ-16" value="Client" style="swimlane;fontStyle=1;align=center;verticalAlign=top;childLayout=stackLayout;horizontal=1;startSize=26;horizontalStack=0;resizeParent=1;resizeParentMax=0;resizeLast=0;collapsible=1;marginBottom=0;" vertex="1" parent="1">
          <mxGeometry x="320" y="590" width="160" height="52" as="geometry" />
        </mxCell>
        <mxCell id="CUUQq9G3v90n7fBV2zaQ-21" style="edgeStyle=orthogonalEdgeStyle;rounded=0;orthogonalLoop=1;jettySize=auto;html=1;exitX=0.5;exitY=0;exitDx=0;exitDy=0;entryX=0.494;entryY=1.066;entryDx=0;entryDy=0;entryPerimeter=0;endArrow=block;endFill=0;" edge="1" parent="1" source="CUUQq9G3v90n7fBV2zaQ-22">
          <mxGeometry relative="1" as="geometry">
            <Array as="points">
              <mxPoint x="170" y="549" />
              <mxPoint x="169" y="510" />
            </Array>
            <mxPoint x="169.03999999999996" y="293.7159999999999" as="targetPoint" />
          </mxGeometry>
        </mxCell>
        <mxCell id="CUUQq9G3v90n7fBV2zaQ-22" value="Employee" style="swimlane;fontStyle=1;align=center;verticalAlign=top;childLayout=stackLayout;horizontal=1;startSize=26;horizontalStack=0;resizeParent=1;resizeParentMax=0;resizeLast=0;collapsible=1;marginBottom=0;" vertex="1" parent="1">
          <mxGeometry x="90" y="590" width="160" height="52" as="geometry" />
        </mxCell>
        <mxCell id="CUUQq9G3v90n7fBV2zaQ-30" value="UserBuilder" style="swimlane;fontStyle=1;align=center;verticalAlign=top;childLayout=stackLayout;horizontal=1;startSize=26;horizontalStack=0;resizeParent=1;resizeParentMax=0;resizeLast=0;collapsible=1;marginBottom=0;" vertex="1" parent="1">
          <mxGeometry x="310" y="266" width="230" height="34" as="geometry" />
        </mxCell>
        <mxCell id="CUUQq9G3v90n7fBV2zaQ-31" value="" style="line;strokeWidth=1;fillColor=none;align=left;verticalAlign=middle;spacingTop=-1;spacingLeft=3;spacingRight=3;rotatable=0;labelPosition=right;points=[];portConstraint=eastwest;" vertex="1" parent="CUUQq9G3v90n7fBV2zaQ-30">
          <mxGeometry y="26" width="230" height="8" as="geometry" />
        </mxCell>
        <mxCell id="CUUQq9G3v90n7fBV2zaQ-35" style="edgeStyle=orthogonalEdgeStyle;rounded=0;orthogonalLoop=1;jettySize=auto;html=1;exitX=0;exitY=0.5;exitDx=0;exitDy=0;entryX=1;entryY=0.5;entryDx=0;entryDy=0;dashed=1;" edge="1" parent="1">
          <mxGeometry relative="1" as="geometry">
            <mxPoint x="610" y="287" as="sourcePoint" />
            <mxPoint x="540" y="287" as="targetPoint" />
          </mxGeometry>
        </mxCell>
        <mxCell id="CUUQq9G3v90n7fBV2zaQ-36" style="edgeStyle=orthogonalEdgeStyle;rounded=0;orthogonalLoop=1;jettySize=auto;html=1;endArrow=classic;endFill=1;entryX=1;entryY=0.5;entryDx=0;entryDy=0;dashed=1;" edge="1" parent="1">
          <mxGeometry relative="1" as="geometry">
            <mxPoint x="310" y="279" as="sourcePoint" />
            <mxPoint x="250" y="279" as="targetPoint" />
            <Array as="points">
              <mxPoint x="307" y="279" />
              <mxPoint x="307" y="279" />
            </Array>
          </mxGeometry>
        </mxCell>
        <mxCell id="CUUQq9G3v90n7fBV2zaQ-37" style="edgeStyle=orthogonalEdgeStyle;rounded=0;orthogonalLoop=1;jettySize=auto;html=1;exitX=0.5;exitY=0;exitDx=0;exitDy=0;entryX=0.5;entryY=1;entryDx=0;entryDy=0;dashed=1;endArrow=none;endFill=0;startArrow=classic;startFill=1;" edge="1" parent="1" source="CUUQq9G3v90n7fBV2zaQ-38" target="CUUQq9G3v90n7fBV2zaQ-12">
          <mxGeometry relative="1" as="geometry">
            <mxPoint x="699.6399999999999" y="299.1160000000002" as="targetPoint" />
          </mxGeometry>
        </mxCell>
        <mxCell id="CUUQq9G3v90n7fBV2zaQ-38" value="&lt;&lt;enum&gt;&gt;&#xa;USER_TYPE" style="swimlane;fontStyle=1;align=center;verticalAlign=top;childLayout=stackLayout;horizontal=1;startSize=40;horizontalStack=0;resizeParent=1;resizeParentMax=0;resizeLast=0;collapsible=1;marginBottom=0;" vertex="1" parent="1">
          <mxGeometry x="610" y="360" width="180" height="48" as="geometry" />
        </mxCell>
        <mxCell id="CUUQq9G3v90n7fBV2zaQ-39" value="" style="line;strokeWidth=1;fillColor=none;align=left;verticalAlign=middle;spacingTop=-1;spacingLeft=3;spacingRight=3;rotatable=0;labelPosition=right;points=[];portConstraint=eastwest;" vertex="1" parent="CUUQq9G3v90n7fBV2zaQ-38">
          <mxGeometry y="40" width="180" height="8" as="geometry" />
        </mxCell>
      </root>
    </mxGraphModel>
  </diagram>
</mxfile>
